#N canvas 520 190 679 573 10;
#N canvas 409 22 856 785 read_image 0;
#X obj 190 353 pix_image;
#X obj 189 385 pix_texture;
#X obj 272 279 openpanel;
#X obj 104 125 bng 30 250 50 0 empty empty empty 17 7 0 10 -262144
-1 -1;
#X obj 188 460 pix_info . . . . .. .;
#X obj 187 625 rectangle 4 4;
#X obj 205 506 expr ($f1/$f2)* 4;
#X obj 205 529 t b f;
#X obj 327 717 gemwin;
#X obj 391 570 loadbang;
#X obj 207 568 once;
#X obj 296 586 once;
#X obj 272 298 t a b b;
#X obj 296 560 t b f;
#X obj 296 618 f;
#X floatatom 253 574 5 0 0 0 - - -;
#X obj 207 591 f;
#X obj 66 517 pix_data;
#X obj 97 555 unpack f f f;
#X floatatom 87 584 5 0 0 0 - - -;
#X floatatom 124 585 5 0 0 0 - - -;
#X floatatom 152 622 5 0 0 0 - - -;
#X obj 1 700 color;
#X obj 7 666 translateXYZ;
#X obj 7 643 gemhead 10;
#X obj 190 315 gemhead 5;
#X obj 5 770 color 1 1 1;
#X obj 98 718 loadbang;
#X obj 205 701 expr ($f1*$f2)-$f3;
#X obj 258 652 t f f;
#X obj 254 676 * 2;
#X obj 160 673 expr $f1*-8+4;
#X obj 88 934 text2d;
#X obj -145 518 expr int($f1*100)/100;
#X obj -131 552 expr int($f1*100)/100;
#X obj -92 585 expr int($f1*100)/100;
#X obj 161 900 loadbang;
#X msg 195 871 justify left base;
#X obj 89 896 translateXYZ 0.4 0 0;
#X msg 159 925 12;
#X msg 196 848 text R:\$1 | G:\$2 | B:\$3;
#X obj 148 125 nbx 4 30 0 1 0 1 empty R: R: -12 15 0 10 -258113 -1
-1 0.39 10;
#X obj 221 125 nbx 4 30 0 1 0 1 empty empty G: -12 15 0 10 -4034 -1
-1 0.63 10;
#X obj 148 165 nbx 4 30 0 1 0 1 empty R: B: -12 15 0 10 -4160 -1 -1
0.96 10;
#X obj -157 734 list;
#X obj -167 686 sel 1;
#X obj -373 836 outlet;
#X obj -322 837 outlet;
#X obj -274 841 outlet;
#X obj 110 434 gemmouse 1 1;
#X obj 203 484 t f f;
#X obj 342 496 t f f;
#X obj 130 871 separator;
#X obj -169 771 t a a a a;
#X obj -166 797 separator;
#X obj -24 721 circle 0.2;
#X obj -170 840 rectangle 0.1 0.01;
#X obj -169 818 translateXYZ 0.35 0 0;
#X floatatom -23 468 5 0 0 0 - - -;
#X floatatom 51 476 5 0 0 0 - - -;
#X obj 121 492 expr 1-$f1;
#X obj 187 409 t b a a a;
#X obj -62 744 separator;
#X msg 98 744 draw line \, width 2;
#X obj -224 779 s color;
#X obj -265 685 list;
#X obj -250 647 pack f f;
#X obj -212 708 t b b;
#X obj -276 725 s pos;
#X obj -351 747 r readcolor;
#X obj -75 336 loadbang;
#X msg -82 367 \; pd dsp 1;
#X obj 221 165 nbx 4 30 0 1 0 1 empty R: G: -12 15 0 10 -228856 -1
-1 0.52 10;
#X msg 272 324 open \$1;
#X obj -134 621 pack f f f f;
#X obj -47 616 expr int($f1*100)/100;
#X obj -333 776 unpack f f f f;
#X obj -228 843 outlet;
#X obj 5 793 circle 0.2;
#X obj 4 822 color 0 0 0;
#X obj 108 766 loadbang;
#X msg 108 792 draw line \, width 2;
#X obj 4 845 circle 0.22;
#X msg 391 614 reset \, destroy \, dimen 100 100 \, create \, 1;
#X msg 327 682 destroy \, reset \, FSAA 8 \, dimen \$1 500 \, create
\, 1;
#X obj 296 537 expr ($f1/$f2)* 500;
#X connect 0 0 1 0;
#X connect 1 0 61 0;
#X connect 2 0 12 0;
#X connect 3 0 2 0;
#X connect 4 0 5 0;
#X connect 4 1 50 0;
#X connect 4 2 51 0;
#X connect 6 0 7 0;
#X connect 7 0 10 0;
#X connect 7 1 16 1;
#X connect 9 0 83 0;
#X connect 10 0 16 0;
#X connect 11 0 14 0;
#X connect 12 0 73 0;
#X connect 12 1 10 1;
#X connect 12 2 11 1;
#X connect 13 0 11 0;
#X connect 13 1 14 1;
#X connect 14 0 84 0;
#X connect 15 0 29 0;
#X connect 16 0 5 1;
#X connect 16 0 15 0;
#X connect 17 1 18 0;
#X connect 17 1 22 1;
#X connect 17 2 75 0;
#X connect 18 0 19 0;
#X connect 18 1 20 0;
#X connect 18 2 21 0;
#X connect 19 0 33 0;
#X connect 20 0 34 0;
#X connect 21 0 35 0;
#X connect 22 0 55 0;
#X connect 23 0 22 0;
#X connect 24 0 23 0;
#X connect 25 0 0 0;
#X connect 26 0 78 0;
#X connect 27 0 63 0;
#X connect 28 0 23 1;
#X connect 28 0 66 0;
#X connect 29 0 30 0;
#X connect 29 1 28 2;
#X connect 30 0 28 1;
#X connect 31 0 23 2;
#X connect 31 0 66 1;
#X connect 33 0 41 0;
#X connect 33 0 74 0;
#X connect 34 0 42 0;
#X connect 34 0 74 1;
#X connect 35 0 43 0;
#X connect 35 0 74 2;
#X connect 36 0 39 0;
#X connect 36 0 37 0;
#X connect 37 0 32 0;
#X connect 38 0 32 0;
#X connect 39 0 32 1;
#X connect 40 0 32 0;
#X connect 44 0 64 0;
#X connect 44 0 76 0;
#X connect 45 0 67 0;
#X connect 49 0 17 2;
#X connect 49 0 28 0;
#X connect 49 0 58 0;
#X connect 49 1 31 0;
#X connect 49 1 59 0;
#X connect 49 1 60 0;
#X connect 49 2 45 0;
#X connect 50 0 85 0;
#X connect 50 1 6 0;
#X connect 51 0 85 1;
#X connect 51 1 6 1;
#X connect 52 0 38 0;
#X connect 53 0 54 0;
#X connect 54 0 57 0;
#X connect 55 0 62 0;
#X connect 57 0 56 0;
#X connect 60 0 17 3;
#X connect 61 0 17 0;
#X connect 61 2 17 1;
#X connect 61 3 4 0;
#X connect 62 0 26 0;
#X connect 63 0 78 0;
#X connect 65 0 68 0;
#X connect 66 0 65 1;
#X connect 67 0 65 0;
#X connect 67 1 44 0;
#X connect 69 0 76 0;
#X connect 70 0 71 0;
#X connect 73 0 0 0;
#X connect 74 0 40 0;
#X connect 74 0 44 1;
#X connect 75 0 74 3;
#X connect 75 0 72 0;
#X connect 76 0 46 0;
#X connect 76 1 47 0;
#X connect 76 2 48 0;
#X connect 76 3 77 0;
#X connect 78 0 79 0;
#X connect 79 0 82 0;
#X connect 80 0 81 0;
#X connect 81 0 82 0;
#X connect 83 0 8 0;
#X connect 84 0 8 0;
#X connect 85 0 13 0;
#X coords 0 -1 1 1 200 100 1 100 100;
#X restore -104 37 pd read_image;
#N canvas 417 22 1035 733 array 0;
#X obj -72 291 repeat 8;
#X obj -74 314 t a b;
#X obj -74 353 separator;
#X obj -76 383 translateXYZ;
#X obj -76 443 circle 0.2;
#X obj -76 469 color 1 1 1;
#X obj -71 245 gemhead 20;
#X obj -190 436 loadbang;
#X obj -176 243 t f b;
#X obj -148 267 f;
#X obj -124 267 + 1;
#X obj -93 268 % 8;
#X obj -389 296 tabwrite r;
#X obj -283 334 tabwrite g;
#X obj -246 163 r color;
#X obj 99 497 table r 16;
#X obj 101 522 table g 16;
#X obj 100 545 table b 16;
#X obj 96 568 table x 16;
#X obj 98 593 table y 16;
#X obj -226 368 r pos;
#X obj -249 387 unpack f f;
#X obj 50 203 f;
#X obj 74 203 + 1;
#X obj 105 204 % 8;
#X obj 44 243 t f f f f f f f;
#X obj 11 302 tabread x;
#X obj -284 447 tabwrite x;
#X obj -244 512 tabwrite y;
#X obj 28 325 tabread y;
#X obj 92 394 tabread r;
#X obj 109 417 tabread g;
#X obj 126 438 tabread b;
#X obj -80 413 colorRGB 1 1 1 1;
#X obj 103 117 tgl 30 0 empty empty empty 17 7 0 10 -262144 -1 -1 0
1;
#X obj 199 201 metro 100;
#X obj 144 58 loadbang;
#X msg 149 84 500;
#X obj 197 228 f;
#X obj 228 230 + 1;
#X obj 259 226 % 8;
#X obj 195 284 tabread r;
#X obj 212 307 tabread g;
#X obj 229 328 tabread b;
#X obj 414 279 gemhead;
#X obj 410 344 translateXYZ;
#X obj 404 401 colorRGB 1 0 0 1;
#X msg 505 325 1 \, 0 300;
#X obj 511 362 line;
#X obj 403 434 alpha;
#X obj 402 460 circle 0.2;
#X obj 465 228 tabread x;
#X obj 482 249 tabread y;
#X obj 182 397 s readcolor;
#X obj 139 117 nbx 4 30 -1e+37 1e+37 0 0 empty empty empty 0 -8 0 10
-262144 -1 -1 500 256;
#X obj -87 610 text2d;
#X msg 14 549 text \$1;
#X obj 15 591 loadbang;
#X msg 15 617 12;
#X obj -181 -132 repeat 8;
#X obj -181 -107 t a b;
#X obj -156 -83 f;
#X obj -132 -83 + 1;
#X obj -101 -82 % 8;
#X obj -178 99 curve 2;
#X obj -157 -11 expr if($f1>7 \, 0 \, $f1);
#X obj -157 -56 t f f;
#X obj -156 -34 + 1;
#X obj -157 29 tabread x;
#X obj -140 52 tabread y;
#X obj -161 11 t f f;
#X obj -163 74 pack f f 0;
#X obj -181 -185 gemhead 15;
#X msg -316 -9 draw point;
#X obj -317 -35 loadbang;
#X obj -181 -160 GEMglPointSize 2;
#X obj -60 24 tabread x;
#X obj -43 47 tabread y;
#X obj -64 6 t f f;
#X obj -66 69 pack f f 0;
#X obj 75 2 gemkeyboard;
#X floatatom 75 28 5 0 0 0 - - -;
#X obj -247 187 unpack f f f f;
#X obj -204 340 tabwrite b;
#X obj 98 472 table gray 16;
#X obj -206 305 tabwrite gray;
#X obj 183 366 pack f f f f;
#X obj 264 351 tabread gray;
#X obj -442 -75 repeat 8;
#X obj -442 -50 t a b;
#X obj -417 -26 f;
#X obj -393 -26 + 1;
#X obj -362 -25 % 8;
#X obj -439 156 curve 2;
#X obj -418 46 expr if($f1>7 \, 0 \, $f1);
#X obj -418 1 t f f;
#X obj -417 23 + 1;
#X obj -418 86 tabread x;
#X obj -401 109 tabread y;
#X obj -422 68 t f f;
#X obj -424 131 pack f f 0;
#X obj -442 -168 gemhead 15;
#X obj -495 69 loadbang;
#X obj -321 81 tabread x;
#X obj -304 104 tabread y;
#X obj -325 63 t f f;
#X obj -327 126 pack f f 0;
#X obj -442 -98 color 0 0 0;
#X msg -495 94 width 3;
#X obj -244 551 loadbang;
#X obj -85 530 color 0 0 0;
#X obj -91 553 circle 0.22;
#X msg -245 580 draw line \, width 2;
#X obj -82 492 circle 0.2;
#X msg -191 465 draw line \, width 2;
#X obj 280 158 sel 1;
#X msg 280 184 0;
#X msg -131 193 0;
#X msg 264 416 \; gray const 0 \; r const 0 \; g const 0 \; b const
0 \; x const 0 \; y const 0;
#X obj 300 20 sel 7;
#X obj 200 250 t f f f f f f b f;
#X msg 318 57 0;
#X obj 17 499 + 1;
#X obj 70 54 sel 49 51;
#X obj 125 156 t f f f;
#X msg 67 89 1;
#X floatatom -130 330 5 0 0 0 - - -;
#X obj -133 378 s total;
#X floatatom -13 176 5 0 0 0 - - -;
#X obj -14 152 r total;
#X msg 36 153 0;
#X obj -133 353 + 1;
#X connect 0 0 1 0;
#X connect 1 0 2 0;
#X connect 1 1 22 0;
#X connect 2 0 3 0;
#X connect 3 0 33 0;
#X connect 4 0 5 0;
#X connect 5 0 113 0;
#X connect 6 0 0 0;
#X connect 7 0 114 0;
#X connect 8 0 85 0;
#X connect 8 1 9 0;
#X connect 9 0 10 0;
#X connect 9 0 12 1;
#X connect 9 0 13 1;
#X connect 9 0 27 1;
#X connect 9 0 28 1;
#X connect 9 0 83 1;
#X connect 9 0 85 1;
#X connect 9 0 126 0;
#X connect 10 0 11 0;
#X connect 11 0 9 1;
#X connect 14 0 82 0;
#X connect 20 0 21 0;
#X connect 21 0 27 0;
#X connect 21 1 28 0;
#X connect 22 0 23 0;
#X connect 22 0 25 0;
#X connect 23 0 24 0;
#X connect 24 0 22 1;
#X connect 25 0 26 0;
#X connect 25 1 29 0;
#X connect 25 2 30 0;
#X connect 25 3 31 0;
#X connect 25 4 32 0;
#X connect 25 6 122 0;
#X connect 26 0 3 1;
#X connect 29 0 3 2;
#X connect 30 0 33 1;
#X connect 31 0 33 2;
#X connect 32 0 33 3;
#X connect 33 0 4 0;
#X connect 34 0 124 0;
#X connect 35 0 38 0;
#X connect 36 0 37 0;
#X connect 37 0 54 0;
#X connect 38 0 39 0;
#X connect 38 0 120 0;
#X connect 39 0 40 0;
#X connect 40 0 38 1;
#X connect 41 0 86 0;
#X connect 42 0 86 1;
#X connect 43 0 86 2;
#X connect 44 0 45 0;
#X connect 45 0 46 0;
#X connect 46 0 49 0;
#X connect 47 0 48 0;
#X connect 48 0 46 4;
#X connect 49 0 50 0;
#X connect 51 0 45 1;
#X connect 52 0 45 2;
#X connect 54 0 35 1;
#X connect 56 0 55 0;
#X connect 57 0 58 0;
#X connect 58 0 55 1;
#X connect 59 0 60 0;
#X connect 60 0 64 0;
#X connect 60 1 61 0;
#X connect 61 0 62 0;
#X connect 61 0 66 0;
#X connect 62 0 63 0;
#X connect 63 0 61 1;
#X connect 65 0 70 0;
#X connect 66 0 67 0;
#X connect 66 1 78 0;
#X connect 67 0 65 0;
#X connect 68 0 71 0;
#X connect 69 0 71 1;
#X connect 70 0 68 0;
#X connect 70 1 69 0;
#X connect 71 0 64 1;
#X connect 72 0 75 0;
#X connect 73 0 64 0;
#X connect 74 0 73 0;
#X connect 75 0 59 0;
#X connect 76 0 79 0;
#X connect 77 0 79 1;
#X connect 78 0 76 0;
#X connect 78 1 77 0;
#X connect 79 0 64 2;
#X connect 80 0 81 0;
#X connect 81 0 123 0;
#X connect 82 0 12 0;
#X connect 82 1 13 0;
#X connect 82 2 83 0;
#X connect 82 3 8 0;
#X connect 86 0 53 0;
#X connect 87 0 86 3;
#X connect 88 0 89 0;
#X connect 89 0 93 0;
#X connect 89 1 90 0;
#X connect 90 0 91 0;
#X connect 90 0 95 0;
#X connect 91 0 92 0;
#X connect 92 0 90 1;
#X connect 94 0 99 0;
#X connect 95 0 96 0;
#X connect 95 1 105 0;
#X connect 96 0 94 0;
#X connect 97 0 100 0;
#X connect 98 0 100 1;
#X connect 99 0 97 0;
#X connect 99 1 98 0;
#X connect 100 0 93 1;
#X connect 101 0 107 0;
#X connect 102 0 108 0;
#X connect 103 0 106 0;
#X connect 104 0 106 1;
#X connect 105 0 103 0;
#X connect 105 1 104 0;
#X connect 106 0 93 2;
#X connect 107 0 88 0;
#X connect 108 0 93 0;
#X connect 109 0 112 0;
#X connect 110 0 111 0;
#X connect 111 0 55 0;
#X connect 112 0 111 0;
#X connect 113 0 110 0;
#X connect 114 0 113 0;
#X connect 115 0 116 0;
#X connect 116 0 38 1;
#X connect 117 0 9 1;
#X connect 119 0 121 0;
#X connect 120 0 41 0;
#X connect 120 1 42 0;
#X connect 120 2 43 0;
#X connect 120 3 51 0;
#X connect 120 4 52 0;
#X connect 120 5 87 0;
#X connect 120 6 47 0;
#X connect 120 7 119 0;
#X connect 121 0 34 0;
#X connect 122 0 56 0;
#X connect 123 0 125 0;
#X connect 123 1 117 0;
#X connect 123 1 118 0;
#X connect 123 1 130 0;
#X connect 124 1 35 0;
#X connect 124 2 115 0;
#X connect 125 0 34 0;
#X connect 126 0 131 0;
#X connect 128 0 0 1;
#X connect 128 0 24 1;
#X connect 128 0 59 1;
#X connect 128 0 63 1;
#X connect 128 0 88 1;
#X connect 128 0 92 1;
#X connect 129 0 128 0;
#X connect 130 0 128 0;
#X connect 131 0 127 0;
#X coords 0 -1 1 1 100 50 1 100 100;
#X restore -42 204 pd array;
#X floatatom -104 147 5 0 0 0 - - -;
#X floatatom -40 146 5 0 0 0 - - -;
#X floatatom 24 147 5 0 0 0 - - -;
#X floatatom 89 146 5 0 0 0 - - -;
#X obj 89 169 expr int($f1*36)+36;
#X floatatom 89 191 5 0 0 0 - - -;
#X obj 89 212 mtof;
#N canvas 455 246 498 412 red 0;
#X obj 100 68 inlet;
#X obj 233 -1 inlet;
#X obj 358 -4 inlet;
#X obj 96 300 outlet;
#X obj 99 109 t f f;
#X obj 235 61 expr if($f1>$f2 \, 2 \, 3);
#X obj 238 109 sel 2 3;
#X obj 233 27 t f f;
#X obj 359 23 t f f;
#X obj 235 135 f;
#X obj 279 139 f;
#X obj 286 213 v other;
#X obj 98 207 expr if($f1>$f2 \, 1 \, other);
#X obj 239 82 t f f;
#X connect 0 0 4 0;
#X connect 1 0 7 0;
#X connect 2 0 8 0;
#X connect 4 0 12 0;
#X connect 5 0 13 0;
#X connect 6 0 9 0;
#X connect 6 1 10 0;
#X connect 7 0 5 0;
#X connect 7 1 9 1;
#X connect 8 0 5 1;
#X connect 8 1 10 1;
#X connect 9 0 12 1;
#X connect 10 0 12 1;
#X connect 12 0 3 0;
#X connect 13 0 6 0;
#X connect 13 1 11 0;
#X restore -104 178 pd red | green | blue;
#X floatatom -104 205 5 0 0 0 - - -;
#X obj -104 266 sel 1 2 3;
#X connect 0 0 2 0;
#X connect 0 1 3 0;
#X connect 0 2 4 0;
#X connect 0 3 5 0;
#X connect 2 0 9 0;
#X connect 3 0 9 1;
#X connect 4 0 9 2;
#X connect 5 0 6 0;
#X connect 6 0 7 0;
#X connect 7 0 8 0;
#X connect 9 0 10 0;
#X connect 10 0 11 0;
