#N canvas 892 174 268 303 10;
#N canvas 409 22 856 785 read_image 0;
#X obj 195 237 pix_image;
#X obj 194 269 pix_texture;
#X obj 277 163 openpanel;
#X obj 103 125 bng 30 250 50 0 empty empty empty 17 7 0 10 -262144
-1 -1;
#X msg 277 208 open \$1;
#X obj 193 344 pix_info . . . . .. .;
#X obj 192 509 rectangle 4 4;
#X obj 210 390 expr ($f1/$f2)* 4;
#X obj 210 413 t b f;
#X obj 322 568 gemwin;
#X obj 396 475 loadbang;
#X msg 396 498 reset \, create \, 1;
#X obj 212 452 once;
#X obj 302 421 expr ($f1/$f2)* 600;
#X obj 307 474 once;
#X obj 277 182 t a b b;
#X obj 301 444 t b f;
#X obj 328 502 f;
#X floatatom 258 458 5 0 0 0 - - -;
#X obj 212 475 f;
#X obj 71 401 pix_data;
#X obj 102 439 unpack f f f;
#X floatatom 92 468 5 0 0 0 - - -;
#X floatatom 129 469 5 0 0 0 - - -;
#X floatatom 157 506 5 0 0 0 - - -;
#X obj 6 584 color;
#X obj 12 550 translateXYZ;
#X obj 12 527 gemhead 10;
#X obj 195 199 gemhead 5;
#X obj 10 654 color 1 1 1;
#X obj 103 602 loadbang;
#X obj 210 585 expr ($f1*$f2)-$f3;
#X obj 263 536 t f f;
#X obj 259 560 * 2;
#X obj 165 557 expr $f1*-8+4;
#X obj 11 768 text2d;
#X obj -140 402 expr int($f1*100)/100;
#X obj -126 436 expr int($f1*100)/100;
#X obj -87 469 expr int($f1*100)/100;
#X obj -129 505 pack f f f;
#X obj 84 734 loadbang;
#X msg 118 705 justify left base;
#X obj 12 730 translateXYZ 0.4 0 0;
#X msg 82 759 12;
#X msg 119 682 text R:\$1 | G:\$2 | B:\$3;
#X obj 153 125 nbx 4 30 0 1 0 1 empty R: R: -12 15 0 10 -258113 -1
-1 0.69 10;
#X obj 222 125 nbx 4 30 0 1 0 1 empty empty G: -12 15 0 10 -4034 -1
-1 0.57 10;
#X obj 292 125 nbx 4 30 0 1 0 1 empty R: B: -12 15 0 10 -4160 -1 -1
0.34 10;
#X obj -152 618 list;
#X obj -162 570 sel 1;
#X obj -328 660 unpack f f f;
#X obj -368 720 outlet;
#X obj -317 721 outlet;
#X obj -269 725 outlet;
#X obj 115 318 gemmouse 1 1;
#X obj 208 368 t f f;
#X obj 347 380 t f f;
#X obj 9 702 t a a;
#X obj 53 705 separator;
#X obj -164 655 t a a a a;
#X obj -161 681 separator;
#X obj -19 605 circle 0.2;
#X obj 10 677 circle 0.205;
#X obj -165 724 rectangle 0.1 0.01;
#X obj -164 702 translateXYZ 0.35 0 0;
#X floatatom -18 352 5 0 0 0 - - -;
#X floatatom 56 360 5 0 0 0 - - -;
#X obj 126 376 expr 1-$f1;
#X obj 192 293 t b a a a;
#X obj -57 628 separator;
#X msg 103 628 draw line \, width 2;
#X msg 322 533 destroy \, reset \, FSAA 8 \, dimen \$1 600 \, create
\, 1;
#X connect 0 0 1 0;
#X connect 1 0 68 0;
#X connect 2 0 15 0;
#X connect 3 0 2 0;
#X connect 4 0 0 0;
#X connect 5 0 6 0;
#X connect 5 1 55 0;
#X connect 5 2 56 0;
#X connect 7 0 8 0;
#X connect 8 0 12 0;
#X connect 8 1 19 1;
#X connect 10 0 11 0;
#X connect 11 0 9 0;
#X connect 12 0 19 0;
#X connect 13 0 16 0;
#X connect 14 0 17 0;
#X connect 15 0 4 0;
#X connect 15 1 12 1;
#X connect 15 2 14 1;
#X connect 16 0 14 0;
#X connect 16 1 17 1;
#X connect 17 0 71 0;
#X connect 18 0 32 0;
#X connect 19 0 6 1;
#X connect 19 0 18 0;
#X connect 20 1 21 0;
#X connect 20 1 25 1;
#X connect 21 0 22 0;
#X connect 21 1 23 0;
#X connect 21 2 24 0;
#X connect 22 0 36 0;
#X connect 23 0 37 0;
#X connect 24 0 38 0;
#X connect 25 0 61 0;
#X connect 26 0 25 0;
#X connect 27 0 26 0;
#X connect 28 0 0 0;
#X connect 29 0 62 0;
#X connect 30 0 70 0;
#X connect 31 0 26 1;
#X connect 32 0 33 0;
#X connect 32 1 31 2;
#X connect 33 0 31 1;
#X connect 34 0 26 2;
#X connect 36 0 39 0;
#X connect 36 0 45 0;
#X connect 37 0 39 1;
#X connect 37 0 46 0;
#X connect 38 0 39 2;
#X connect 38 0 47 0;
#X connect 39 0 44 0;
#X connect 39 0 48 1;
#X connect 40 0 43 0;
#X connect 40 0 41 0;
#X connect 41 0 35 0;
#X connect 42 0 35 0;
#X connect 43 0 35 1;
#X connect 44 0 35 0;
#X connect 48 0 50 0;
#X connect 49 0 48 0;
#X connect 50 0 51 0;
#X connect 50 1 52 0;
#X connect 50 2 53 0;
#X connect 54 0 20 2;
#X connect 54 0 31 0;
#X connect 54 0 65 0;
#X connect 54 1 34 0;
#X connect 54 1 66 0;
#X connect 54 1 67 0;
#X connect 54 2 49 0;
#X connect 55 0 13 0;
#X connect 55 1 7 0;
#X connect 56 0 13 1;
#X connect 56 1 7 1;
#X connect 57 1 58 0;
#X connect 58 0 42 0;
#X connect 59 0 60 0;
#X connect 60 0 64 0;
#X connect 61 0 69 0;
#X connect 62 0 57 0;
#X connect 64 0 63 0;
#X connect 67 0 20 3;
#X connect 68 0 20 0;
#X connect 68 2 20 1;
#X connect 68 3 5 0;
#X connect 69 0 29 0;
#X connect 70 0 62 0;
#X connect 71 0 9 0;
#X coords 0 -1 1 1 250 60 1 100 100;
#X restore -104 15 pd read_image;
#X floatatom -19 90 5 0 0 0 - - -;
#X msg -19 163 1 \, 0 \$1;
#X obj -104 90 * 500;
#X obj -104 113 + 100;
#X obj -63 114 + 100;
#X obj -104 146 osc~;
#X obj -104 210 *~;
#X obj -19 185 line~;
#X obj -104 241 dac~;
#X obj -63 138 osc~;
#X obj -63 90 * 500;
#X obj -104 180 *~ 0.5;
#X obj -19 118 * 1000;
#X obj -19 139 + 200;
#X connect 0 0 3 0;
#X connect 0 1 11 0;
#X connect 0 2 1 0;
#X connect 1 0 13 0;
#X connect 2 0 8 0;
#X connect 3 0 4 0;
#X connect 4 0 6 0;
#X connect 5 0 10 0;
#X connect 6 0 12 0;
#X connect 7 0 9 0;
#X connect 7 0 9 1;
#X connect 8 0 7 1;
#X connect 10 0 12 0;
#X connect 11 0 5 0;
#X connect 12 0 7 0;
#X connect 13 0 14 0;
#X connect 14 0 2 0;
