#N canvas 657 168 268 303 10;
#N canvas 409 22 856 785 read_image 0;
#X obj 195 237 pix_image;
#X obj 194 269 pix_texture;
#X obj 277 163 openpanel;
#X obj 103 125 bng 30 250 50 0 empty empty empty 17 7 0 10 -262144
-1 -1;
#X msg 277 208 open \$1;
#X obj 193 344 pix_info . . . . .. .;
#X obj 192 509 rectangle 4 4;
#X obj 210 390 expr ($f1/$f2)* 4;
#X obj 210 413 t b f;
#X obj 322 568 gemwin;
#X obj 396 475 loadbang;
#X msg 396 498 reset \, create \, 1;
#X obj 212 452 once;
#X obj 302 421 expr ($f1/$f2)* 600;
#X obj 307 474 once;
#X obj 277 182 t a b b;
#X obj 301 444 t b f;
#X obj 328 502 f;
#X floatatom 258 458 5 0 0 0 - - -;
#X obj 212 475 f;
#X obj 71 401 pix_data;
#X obj 102 439 unpack f f f;
#X floatatom 92 468 5 0 0 0 - - -;
#X floatatom 129 469 5 0 0 0 - - -;
#X floatatom 157 506 5 0 0 0 - - -;
#X obj 6 584 color;
#X obj 12 550 translateXYZ;
#X obj 12 527 gemhead 10;
#X obj 195 199 gemhead 5;
#X obj 10 654 color 1 1 1;
#X obj 103 602 loadbang;
#X obj 210 585 expr ($f1*$f2)-$f3;
#X obj 263 536 t f f;
#X obj 259 560 * 2;
#X obj 165 557 expr $f1*-8+4;
#X obj 11 768 text2d;
#X obj -140 402 expr int($f1*100)/100;
#X obj -126 436 expr int($f1*100)/100;
#X obj -87 469 expr int($f1*100)/100;
#X obj -129 505 pack f f f;
#X obj 84 734 loadbang;
#X msg 118 705 justify left base;
#X obj 12 730 translateXYZ 0.4 0 0;
#X msg 82 759 12;
#X msg 119 682 text R:\$1 | G:\$2 | B:\$3;
#X obj 153 125 nbx 4 30 0 1 0 1 empty R: R: -12 15 0 10 -258113 -1
-1 0.9 10;
#X obj 222 125 nbx 4 30 0 1 0 1 empty empty G: -12 15 0 10 -4034 -1
-1 0.9 10;
#X obj 292 125 nbx 4 30 0 1 0 1 empty R: B: -12 15 0 10 -4160 -1 -1
0.84 10;
#X obj -152 618 list;
#X obj -162 570 sel 1;
#X obj -328 660 unpack f f f;
#X obj -368 720 outlet;
#X obj -317 721 outlet;
#X obj -269 725 outlet;
#X obj 115 318 gemmouse 1 1;
#X obj 208 368 t f f;
#X obj 347 380 t f f;
#X obj 9 702 t a a;
#X obj 53 705 separator;
#X obj -164 655 t a a a a;
#X obj -161 681 separator;
#X obj -19 605 circle 0.2;
#X obj 10 677 circle 0.205;
#X obj -165 724 rectangle 0.1 0.01;
#X obj -164 702 translateXYZ 0.35 0 0;
#X floatatom -18 352 5 0 0 0 - - -;
#X floatatom 56 360 5 0 0 0 - - -;
#X obj 126 376 expr 1-$f1;
#X obj 192 293 t b a a a;
#X obj -57 628 separator;
#X msg 103 628 draw line \, width 2;
#X msg 322 533 destroy \, reset \, FSAA 8 \, dimen \$1 600 \, create
\, 1;
#X obj -219 663 s color;
#X obj -260 569 list;
#X obj -245 531 pack f f;
#X obj -207 592 t b b;
#X obj -271 609 s pos;
#X obj -346 631 r readcolor;
#X obj -172 284 square 15;
#X obj -171 209 alpha;
#X obj -170 165 gemhead 6;
#X obj -174 236 color 0 0 0 0.15;
#X obj -70 220 loadbang;
#X msg -77 251 \; pd dsp 1;
#X connect 0 0 1 0;
#X connect 1 0 68 0;
#X connect 2 0 15 0;
#X connect 3 0 2 0;
#X connect 4 0 0 0;
#X connect 5 0 6 0;
#X connect 5 1 55 0;
#X connect 5 2 56 0;
#X connect 7 0 8 0;
#X connect 8 0 12 0;
#X connect 8 1 19 1;
#X connect 10 0 11 0;
#X connect 11 0 9 0;
#X connect 12 0 19 0;
#X connect 13 0 16 0;
#X connect 14 0 17 0;
#X connect 15 0 4 0;
#X connect 15 1 12 1;
#X connect 15 2 14 1;
#X connect 16 0 14 0;
#X connect 16 1 17 1;
#X connect 17 0 71 0;
#X connect 18 0 32 0;
#X connect 19 0 6 1;
#X connect 19 0 18 0;
#X connect 20 1 21 0;
#X connect 20 1 25 1;
#X connect 21 0 22 0;
#X connect 21 1 23 0;
#X connect 21 2 24 0;
#X connect 22 0 36 0;
#X connect 23 0 37 0;
#X connect 24 0 38 0;
#X connect 25 0 61 0;
#X connect 26 0 25 0;
#X connect 27 0 26 0;
#X connect 28 0 0 0;
#X connect 29 0 62 0;
#X connect 30 0 70 0;
#X connect 31 0 26 1;
#X connect 31 0 74 0;
#X connect 32 0 33 0;
#X connect 32 1 31 2;
#X connect 33 0 31 1;
#X connect 34 0 26 2;
#X connect 34 0 74 1;
#X connect 36 0 39 0;
#X connect 36 0 45 0;
#X connect 37 0 39 1;
#X connect 37 0 46 0;
#X connect 38 0 39 2;
#X connect 38 0 47 0;
#X connect 39 0 44 0;
#X connect 39 0 48 1;
#X connect 40 0 43 0;
#X connect 40 0 41 0;
#X connect 41 0 35 0;
#X connect 42 0 35 0;
#X connect 43 0 35 1;
#X connect 44 0 35 0;
#X connect 48 0 50 0;
#X connect 48 0 72 0;
#X connect 49 0 75 0;
#X connect 50 0 51 0;
#X connect 50 1 52 0;
#X connect 50 2 53 0;
#X connect 54 0 20 2;
#X connect 54 0 31 0;
#X connect 54 0 65 0;
#X connect 54 1 34 0;
#X connect 54 1 66 0;
#X connect 54 1 67 0;
#X connect 54 2 49 0;
#X connect 55 0 13 0;
#X connect 55 1 7 0;
#X connect 56 0 13 1;
#X connect 56 1 7 1;
#X connect 57 1 58 0;
#X connect 58 0 42 0;
#X connect 59 0 60 0;
#X connect 60 0 64 0;
#X connect 61 0 69 0;
#X connect 62 0 57 0;
#X connect 64 0 63 0;
#X connect 67 0 20 3;
#X connect 68 0 20 0;
#X connect 68 2 20 1;
#X connect 68 3 5 0;
#X connect 69 0 29 0;
#X connect 70 0 62 0;
#X connect 71 0 9 0;
#X connect 73 0 76 0;
#X connect 74 0 73 1;
#X connect 75 0 73 0;
#X connect 75 1 48 0;
#X connect 77 0 50 0;
#X connect 79 0 81 0;
#X connect 80 0 79 0;
#X connect 82 0 83 0;
#X coords 0 -1 1 1 250 60 1 100 100;
#X restore -104 15 pd read_image;
#N canvas 657 128 814 592 array 0;
#X obj -72 291 repeat 8;
#X obj -74 314 t a b;
#X obj -74 353 separator;
#X obj -76 383 translateXYZ;
#X obj -76 443 circle 0.2;
#X obj -77 501 circle 0.205;
#X obj -76 469 color 1 1 1;
#X obj -76 248 gemhead 20;
#X msg -163 493 draw line;
#X obj -162 464 loadbang;
#X obj -190 260 t f b;
#X obj -162 284 f;
#X obj -138 284 + 1;
#X obj -107 285 % 8;
#X obj -191 323 tabwrite b;
#X obj -302 320 tabwrite r;
#X obj -245 345 tabwrite g;
#X obj -246 163 r color;
#X obj -247 187 unpack f f f;
#X obj 330 540 table r 16;
#X obj 332 565 table g 16;
#X obj 331 588 table b 16;
#X obj 327 611 table x 16;
#X obj 329 636 table y 16;
#X obj -226 368 r pos;
#X obj -249 387 unpack f f;
#X obj 50 203 f;
#X obj 74 203 + 1;
#X obj 105 204 % 8;
#X obj 44 243 t f f f f f f f;
#X obj 11 302 tabread x;
#X obj -301 412 tabwrite x;
#X obj -244 437 tabwrite y;
#X obj 28 325 tabread y;
#X obj 92 394 tabread r;
#X obj 109 417 tabread g;
#X obj 126 438 tabread b;
#X obj -80 413 colorRGB 1 1 1 1;
#X obj 103 117 tgl 30 0 empty empty empty 17 7 0 10 -262144 -1 -1 1
1;
#X obj 199 201 metro 100;
#X obj 144 58 loadbang;
#X msg 149 84 500;
#X obj 197 228 f;
#X obj 228 230 + 1;
#X obj 259 226 % 8;
#X obj 195 284 tabread r;
#X obj 212 307 tabread g;
#X obj 229 328 tabread b;
#X obj 322 279 gemhead;
#X obj 318 344 translateXYZ;
#X obj 312 401 colorRGB 1 0 0 1;
#X msg 413 325 1 \, 0 300;
#X obj 419 362 line;
#X obj 311 434 alpha;
#X obj 310 460 circle 0.2;
#X obj 197 256 t f f f f f f b;
#X obj 373 228 tabread x;
#X obj 390 249 tabread y;
#X obj 183 366 pack f f f;
#X obj 182 397 s readcolor;
#X obj 139 117 nbx 4 30 -1e+37 1e+37 0 0 empty empty empty 0 -8 0 10
-262144 -1 -1 100 256;
#X obj -82 554 text2d;
#X msg 19 493 text \$1;
#X obj 20 535 loadbang;
#X msg 20 561 12;
#X obj -133 -30 repeat 8;
#X obj -134 5 t a b;
#X obj -109 29 f;
#X obj -85 29 + 1;
#X obj -54 30 % 8;
#X obj -131 211 curve 2;
#X obj -110 101 expr if($f1>7 \, 0 \, $f1);
#X obj -110 56 t f f;
#X obj -109 78 + 1;
#X obj -110 141 tabread x;
#X obj -93 164 tabread y;
#X obj -114 123 t f f;
#X obj -116 186 pack f f 0;
#X obj -130 -83 gemhead 15;
#X msg -269 103 draw point;
#X obj -270 77 loadbang;
#X obj -127 -58 GEMglPointSize 2;
#X obj -13 136 tabread x;
#X obj 4 159 tabread y;
#X obj -17 118 t f f;
#X obj -19 181 pack f f 0;
#X obj 75 2 gemkeyboard;
#X floatatom 75 28 5 0 0 0 - - -;
#X obj 70 54 sel 49;
#X connect 0 0 1 0;
#X connect 1 0 2 0;
#X connect 1 1 26 0;
#X connect 2 0 3 0;
#X connect 3 0 37 0;
#X connect 4 0 6 0;
#X connect 5 0 61 0;
#X connect 6 0 5 0;
#X connect 7 0 0 0;
#X connect 8 0 5 0;
#X connect 9 0 8 0;
#X connect 10 0 14 0;
#X connect 10 1 11 0;
#X connect 11 0 12 0;
#X connect 11 0 14 1;
#X connect 11 0 15 1;
#X connect 11 0 16 1;
#X connect 11 0 31 1;
#X connect 11 0 32 1;
#X connect 12 0 13 0;
#X connect 13 0 11 1;
#X connect 17 0 18 0;
#X connect 18 0 15 0;
#X connect 18 1 16 0;
#X connect 18 2 10 0;
#X connect 24 0 25 0;
#X connect 25 0 31 0;
#X connect 25 1 32 0;
#X connect 26 0 27 0;
#X connect 26 0 29 0;
#X connect 27 0 28 0;
#X connect 28 0 26 1;
#X connect 29 0 30 0;
#X connect 29 1 33 0;
#X connect 29 2 34 0;
#X connect 29 3 35 0;
#X connect 29 4 36 0;
#X connect 29 5 62 0;
#X connect 30 0 3 1;
#X connect 33 0 3 2;
#X connect 34 0 37 1;
#X connect 35 0 37 2;
#X connect 36 0 37 3;
#X connect 37 0 4 0;
#X connect 38 0 39 0;
#X connect 39 0 42 0;
#X connect 40 0 41 0;
#X connect 41 0 60 0;
#X connect 42 0 43 0;
#X connect 42 0 55 0;
#X connect 43 0 44 0;
#X connect 44 0 42 1;
#X connect 45 0 58 0;
#X connect 46 0 58 1;
#X connect 47 0 58 2;
#X connect 48 0 49 0;
#X connect 49 0 50 0;
#X connect 50 0 53 0;
#X connect 51 0 52 0;
#X connect 52 0 50 4;
#X connect 53 0 54 0;
#X connect 55 0 45 0;
#X connect 55 1 46 0;
#X connect 55 2 47 0;
#X connect 55 3 56 0;
#X connect 55 4 57 0;
#X connect 55 6 51 0;
#X connect 56 0 49 1;
#X connect 57 0 49 2;
#X connect 58 0 59 0;
#X connect 60 0 39 1;
#X connect 62 0 61 0;
#X connect 63 0 64 0;
#X connect 64 0 61 1;
#X connect 65 0 66 0;
#X connect 66 0 70 0;
#X connect 66 1 67 0;
#X connect 67 0 68 0;
#X connect 67 0 72 0;
#X connect 68 0 69 0;
#X connect 69 0 67 1;
#X connect 71 0 76 0;
#X connect 72 0 73 0;
#X connect 72 1 84 0;
#X connect 73 0 71 0;
#X connect 74 0 77 0;
#X connect 75 0 77 1;
#X connect 76 0 74 0;
#X connect 76 1 75 0;
#X connect 77 0 70 1;
#X connect 78 0 81 0;
#X connect 79 0 70 0;
#X connect 80 0 79 0;
#X connect 81 0 65 0;
#X connect 82 0 85 0;
#X connect 83 0 85 1;
#X connect 84 0 82 0;
#X connect 84 1 83 0;
#X connect 85 0 70 2;
#X connect 86 0 87 0;
#X connect 87 0 88 0;
#X connect 88 0 38 0;
#X coords 0 -1 1 1 100 50 1 100 100;
#X restore 39 113 pd array;
