#N canvas 436 457 439 293 10;
#N canvas 357 58 1276 738 color-position 0;
#X obj -228 -71 pix_video;
#X obj -232 89 pix_texture;
#X obj -228 -16 pix_resize 10 10;
#X obj -228 -43 pix_rgba;
#X msg -304 41 quality \$1;
#X obj -115 119 pix_data;
#X floatatom -62 145 5 0 0 0 - - -;
#X obj 44 8 unpack 0 0 0;
#X floatatom 149 31 5 0 0 0 - - -;
#X floatatom 95 31 5 0 0 0 - - -;
#X floatatom 44 31 5 0 0 0 - - -;
#X text 55 -9 color-list;
#X floatatom -80 76 5 0 0 0 - - -;
#X floatatom -62 99 5 0 0 0 - - -;
#X obj -228 64 t b a a;
#X obj -102 267 color;
#X obj -232 154 square 4;
#X obj -232 127 translateXYZ -4 0 0;
#X obj -102 295 translateXYZ 4 0 0;
#X obj -102 319 square 4;
#X obj -204 402 translateXYZ;
#X msg -284 415 draw line;
#X obj -228 -97 gemhead 1;
#X obj -102 217 gemhead 1;
#X obj -204 443 square 0.4;
#X obj -284 386 loadbang;
#N canvas 411 165 644 446 range 0;
#X obj 170 100 expr $f2-$f1;
#X obj 303 99 expr $f2-$f1;
#X obj 132 -60 inlet;
#X obj 237 76 t b f;
#X obj 73 82 inlet;
#X obj 80 166 outlet;
#X obj 81 138 expr ((($f1-$f2)/$f3)*$f4)+$f5;
#X obj 176 -25 unpack f f f f;
#X obj 170 71 f;
#X obj 302 68 f;
#X connect 0 0 6 2;
#X connect 1 0 6 3;
#X connect 2 0 7 0;
#X connect 3 0 8 0;
#X connect 3 1 0 1;
#X connect 4 0 6 0;
#X connect 6 0 5 0;
#X connect 7 0 8 0;
#X connect 7 1 3 0;
#X connect 7 2 9 0;
#X connect 7 3 1 1;
#X connect 8 0 0 0;
#X connect 8 0 6 1;
#X connect 9 0 1 0;
#X connect 9 0 6 4;
#X restore -425 322 pd range;
#X obj -380 277 loadbang;
#X floatatom -425 348 5 0 0 0 - - -;
#X obj -386 181 gemmouse 100 100;
#X msg -380 300 0 0.9 -7.6 -0.4;
#X obj -386 245 expr (int($f1/5))/10;
#X obj -386 214 moses 50;
#N canvas 411 165 644 446 range 0;
#X obj 170 100 expr $f2-$f1;
#X obj 303 99 expr $f2-$f1;
#X obj 132 -60 inlet;
#X obj 237 76 t b f;
#X obj 73 82 inlet;
#X obj 80 166 outlet;
#X obj 81 138 expr ((($f1-$f2)/$f3)*$f4)+$f5;
#X obj 176 -25 unpack f f f f;
#X obj 170 71 f;
#X obj 302 68 f;
#X connect 0 0 6 2;
#X connect 1 0 6 3;
#X connect 2 0 7 0;
#X connect 3 0 8 0;
#X connect 3 1 0 1;
#X connect 4 0 6 0;
#X connect 6 0 5 0;
#X connect 7 0 8 0;
#X connect 7 1 3 0;
#X connect 7 2 9 0;
#X connect 7 3 1 1;
#X connect 8 0 0 0;
#X connect 8 0 6 1;
#X connect 9 0 1 0;
#X connect 9 0 6 4;
#X restore -268 329 pd range;
#X obj -224 284 loadbang;
#X floatatom -268 354 5 0 0 0 - - -;
#X msg -224 307 0 0.9 -3.6 3.6;
#X obj -234 216 expr 100-$f1;
#X obj -234 240 expr int(($f1/100)*10)/10;
#X obj -304 -6 loadbang;
#X msg -304 18 0;
#X obj 114 134 nbx 4 30 0 1 0 1 empty R: R: -12 15 0 10 -258113 -1
-1 0.886275 10;
#X obj 183 134 nbx 4 30 0 1 0 1 empty empty G: -12 15 0 10 -4034 -1
-1 0.929412 10;
#X obj 253 134 nbx 4 30 0 1 0 1 empty R: B: -12 15 0 10 -4160 -1 -1
0.670588 10;
#X obj 380 386 text2d;
#X obj 307 58 expr int($f1*100)/100;
#X obj 337 144 pack f f f;
#X obj 329 78 expr int($f1*100)/100;
#X obj 366 100 expr int($f1*100)/100;
#X obj 383 254 gemhead 10;
#X msg 404 330 text R:\$1 | G:\$2 | B:\$3;
#X msg 428 385 20;
#X obj 399 560 text2d;
#X obj 402 428 gemhead 10;
#X msg 423 504 text R:\$1 | G:\$2 | B:\$3;
#X obj 486 417 loadbang;
#X obj 400 480 color 0 0 0;
#X msg 447 559 20;
#X obj 594 565 text2d;
#X obj 597 433 gemhead 10;
#X msg 618 509 text R:\$1 | G:\$2 | B:\$3;
#X obj 681 422 loadbang;
#X obj 595 485 color 0 0 0;
#X msg 642 564 20;
#X obj 469 269 text2d;
#X obj 472 137 gemhead 10;
#X msg 493 213 text R:\$1 | G:\$2 | B:\$3;
#X obj 556 126 loadbang;
#X obj 470 189 color 0 0 0;
#X msg 517 268 20;
#X obj 664 274 text2d;
#X obj 667 142 gemhead 10;
#X msg 688 218 text R:\$1 | G:\$2 | B:\$3;
#X obj 751 131 loadbang;
#X obj 665 194 color 0 0 0;
#X msg 712 273 20;
#X obj 381 298 translateXYZ 4 0 0;
#X obj 400 453 translateXYZ 4.02 0 0;
#X obj 595 458 translateXYZ 3.98 0 0;
#X obj 470 162 translateXYZ 4 0.02 0;
#X obj 665 167 translateXYZ 4 -0.02 0;
#X obj 248 334 outlet;
#X obj 298 331 outlet;
#X obj 323 359 outlet;
#X obj -224 35 pix_flip;
#X msg -109 7 horizontal;
#X obj -109 -25 loadbang;
#X obj -228 7 pix_gain 1.2;
#X obj 266 9 gemwin;
#X msg 263 -16 destroy \, reset \, dimen 800 400 \, create \, 1;
#X msg 243 -37 destroy;
#X obj 280 104 tgl 25 0 empty empty empty 17 7 0 10 -262144 -1 -1 1
1;
#X obj 380 -48 sel 0 1;
#X obj 72 559 text2d;
#X obj 101 235 repeat 16;
#X obj 101 262 t a b;
#X obj 189 248 f;
#X obj 220 247 + 1;
#X obj 250 247 % 16;
#X obj 138 311 tabread melody;
#X obj 133 392 expr $f1%10;
#N canvas 411 165 644 446 range 0;
#X obj 170 100 expr $f2-$f1;
#X obj 303 99 expr $f2-$f1;
#X obj 132 -60 inlet;
#X obj 237 76 t b f;
#X obj 73 82 inlet;
#X obj 80 166 outlet;
#X obj 81 138 expr ((($f1-$f2)/$f3)*$f4)+$f5;
#X obj 176 -25 unpack f f f f;
#X obj 170 71 f;
#X obj 302 68 f;
#X connect 0 0 6 2;
#X connect 1 0 6 3;
#X connect 2 0 7 0;
#X connect 3 0 8 0;
#X connect 3 1 0 1;
#X connect 4 0 6 0;
#X connect 6 0 5 0;
#X connect 7 0 8 0;
#X connect 7 1 3 0;
#X connect 7 2 9 0;
#X connect 7 3 1 1;
#X connect 8 0 0 0;
#X connect 8 0 6 1;
#X connect 9 0 1 0;
#X connect 9 0 6 4;
#X restore 68 461 pd range;
#X obj 113 416 loadbang;
#N canvas 411 165 644 446 range 0;
#X obj 170 100 expr $f2-$f1;
#X obj 303 99 expr $f2-$f1;
#X obj 132 -60 inlet;
#X obj 237 76 t b f;
#X obj 73 82 inlet;
#X obj 80 166 outlet;
#X obj 81 138 expr ((($f1-$f2)/$f3)*$f4)+$f5;
#X obj 176 -25 unpack f f f f;
#X obj 170 71 f;
#X obj 302 68 f;
#X connect 0 0 6 2;
#X connect 1 0 6 3;
#X connect 2 0 7 0;
#X connect 3 0 8 0;
#X connect 3 1 0 1;
#X connect 4 0 6 0;
#X connect 6 0 5 0;
#X connect 7 0 8 0;
#X connect 7 1 3 0;
#X connect 7 2 9 0;
#X connect 7 3 1 1;
#X connect 8 0 0 0;
#X connect 8 0 6 1;
#X connect 9 0 1 0;
#X connect 9 0 6 4;
#X restore 154 471 pd range;
#X obj 199 426 loadbang;
#X obj 156 364 expr int($f1/10);
#X obj 138 334 t f f f;
#X msg 115 508 text \$1;
#X obj 18 400 translateXYZ;
#X obj 101 203 gemhead 15;
#X obj 170 281 t f f;
#X obj 249 293 + 1;
#X obj 20 337 spigot;
#X obj 68 331 > 0;
#X obj -284 506 gemmouse 1 1;
#X obj -287 538 expr $f1*16-8;
#X obj -269 562 expr $f1*-8+4;
#X floatatom -289 593 5 0 0 0 - - -;
#X floatatom -243 592 5 0 0 0 - - -;
#X msg 196 561 justify center base;
#X obj 200 534 loadbang;
#X obj 20 371 separator;
#X obj 139 530 loadbang;
#X msg 140 587 12;
#X msg 199 449 0 9 3.5 -3.7;
#X msg 113 439 0 10 -7.7 0.4;
#X obj -124 535 translateXYZ;
#X obj -124 576 square 0.4;
#N canvas 663 378 467 383 pos 0;
#X obj 119 136 expr $f1%10;
#N canvas 411 165 644 446 range 0;
#X obj 170 100 expr $f2-$f1;
#X obj 303 99 expr $f2-$f1;
#X obj 132 -60 inlet;
#X obj 237 76 t b f;
#X obj 73 82 inlet;
#X obj 80 166 outlet;
#X obj 81 138 expr ((($f1-$f2)/$f3)*$f4)+$f5;
#X obj 176 -25 unpack f f f f;
#X obj 170 71 f;
#X obj 302 68 f;
#X connect 0 0 6 2;
#X connect 1 0 6 3;
#X connect 2 0 7 0;
#X connect 3 0 8 0;
#X connect 3 1 0 1;
#X connect 4 0 6 0;
#X connect 6 0 5 0;
#X connect 7 0 8 0;
#X connect 7 1 3 0;
#X connect 7 2 9 0;
#X connect 7 3 1 1;
#X connect 8 0 0 0;
#X connect 8 0 6 1;
#X connect 9 0 1 0;
#X connect 9 0 6 4;
#X restore 54 205 pd range;
#X obj 99 160 loadbang;
#N canvas 411 165 644 446 range 0;
#X obj 170 100 expr $f2-$f1;
#X obj 303 99 expr $f2-$f1;
#X obj 132 -60 inlet;
#X obj 237 76 t b f;
#X obj 73 82 inlet;
#X obj 80 166 outlet;
#X obj 81 138 expr ((($f1-$f2)/$f3)*$f4)+$f5;
#X obj 176 -25 unpack f f f f;
#X obj 170 71 f;
#X obj 302 68 f;
#X connect 0 0 6 2;
#X connect 1 0 6 3;
#X connect 2 0 7 0;
#X connect 3 0 8 0;
#X connect 3 1 0 1;
#X connect 4 0 6 0;
#X connect 6 0 5 0;
#X connect 7 0 8 0;
#X connect 7 1 3 0;
#X connect 7 2 9 0;
#X connect 7 3 1 1;
#X connect 8 0 0 0;
#X connect 8 0 6 1;
#X connect 9 0 1 0;
#X connect 9 0 6 4;
#X restore 140 215 pd range;
#X obj 185 170 loadbang;
#X obj 142 108 expr int($f1/10);
#X obj 125 50 r pos;
#X obj 60 281 outlet;
#X obj 126 273 outlet;
#X msg 99 183 0 10 -7.6 0.4;
#X msg 185 193 0 9 3.6 -3.6;
#X obj 124 78 t b f f;
#X obj 6 268 outlet;
#X connect 0 0 1 0;
#X connect 1 0 7 0;
#X connect 2 0 9 0;
#X connect 3 0 8 0;
#X connect 4 0 10 0;
#X connect 5 0 3 0;
#X connect 6 0 11 0;
#X connect 9 0 1 1;
#X connect 10 0 3 1;
#X connect 11 0 12 0;
#X connect 11 1 0 0;
#X connect 11 2 5 0;
#X restore -38 458 pd pos;
#X obj -122 397 gemhead 8;
#X obj -85 418 spigot;
#X obj -49 363 r go;
#X obj -204 372 gemhead 9;
#X obj -234 190 moses 100;
#N canvas 411 165 644 446 range 0;
#X obj 170 100 expr $f2-$f1;
#X obj 303 99 expr $f2-$f1;
#X obj 132 -60 inlet;
#X obj 237 76 t b f;
#X obj 73 82 inlet;
#X obj 80 166 outlet;
#X obj 81 138 expr ((($f1-$f2)/$f3)*$f4)+$f5;
#X obj 176 -25 unpack f f f f;
#X obj 170 71 f;
#X obj 302 68 f;
#X connect 0 0 6 2;
#X connect 1 0 6 3;
#X connect 2 0 7 0;
#X connect 3 0 8 0;
#X connect 3 1 0 1;
#X connect 4 0 6 0;
#X connect 6 0 5 0;
#X connect 7 0 8 0;
#X connect 7 1 3 0;
#X connect 7 2 9 0;
#X connect 7 3 1 1;
#X connect 8 0 0 0;
#X connect 8 0 6 1;
#X connect 9 0 1 0;
#X connect 9 0 6 4;
#X restore -52 -52 pd range;
#X obj -7 -97 loadbang;
#X msg -7 -74 -7.6 -0.4 0 0.9;
#N canvas 411 165 644 446 range 0;
#X obj 170 100 expr $f2-$f1;
#X obj 303 99 expr $f2-$f1;
#X obj 132 -60 inlet;
#X obj 237 76 t b f;
#X obj 73 82 inlet;
#X obj 80 166 outlet;
#X obj 81 138 expr ((($f1-$f2)/$f3)*$f4)+$f5;
#X obj 176 -25 unpack f f f f;
#X obj 170 71 f;
#X obj 302 68 f;
#X connect 0 0 6 2;
#X connect 1 0 6 3;
#X connect 2 0 7 0;
#X connect 3 0 8 0;
#X connect 3 1 0 1;
#X connect 4 0 6 0;
#X connect 6 0 5 0;
#X connect 7 0 8 0;
#X connect 7 1 3 0;
#X connect 7 2 9 0;
#X connect 7 3 1 1;
#X connect 8 0 0 0;
#X connect 8 0 6 1;
#X connect 9 0 1 0;
#X connect 9 0 6 4;
#X restore -20 -11 pd range;
#X obj 25 -56 loadbang;
#X msg 25 -33 -3.6 3.6 0 0.9;
#X obj -126 458 alpha;
#X obj -135 490 colorRGB 0 0 0 0;
#X obj 14 150 loadbang;
#X msg 3 196 \; pd dsp 1;
#X obj 190 176 pack f f f;
#X obj 267 185 list;
#X obj 264 206 unpack f f f;
#X obj 190 208 sel 1;
#X connect 0 0 3 0;
#X connect 1 0 17 0;
#X connect 2 0 87 0;
#X connect 3 0 2 0;
#X connect 4 0 1 0;
#X connect 5 1 7 0;
#X connect 5 1 15 1;
#X connect 5 2 6 0;
#X connect 7 0 10 0;
#X connect 7 1 9 0;
#X connect 7 2 8 0;
#X connect 8 0 43 0;
#X connect 8 0 48 0;
#X connect 9 0 42 0;
#X connect 9 0 47 0;
#X connect 10 0 41 0;
#X connect 10 0 45 0;
#X connect 12 0 5 2;
#X connect 13 0 5 3;
#X connect 14 0 5 0;
#X connect 14 1 1 0;
#X connect 14 2 5 1;
#X connect 15 0 18 0;
#X connect 17 0 16 0;
#X connect 18 0 19 0;
#X connect 20 0 24 0;
#X connect 21 0 24 0;
#X connect 22 0 0 0;
#X connect 23 0 15 0;
#X connect 25 0 21 0;
#X connect 26 0 28 0;
#X connect 27 0 30 0;
#X connect 28 0 20 1;
#X connect 29 0 32 0;
#X connect 29 1 133 0;
#X connect 29 2 147 0;
#X connect 30 0 26 1;
#X connect 31 0 26 0;
#X connect 31 0 12 0;
#X connect 32 0 31 0;
#X connect 33 0 35 0;
#X connect 34 0 36 0;
#X connect 35 0 20 2;
#X connect 36 0 33 1;
#X connect 37 0 38 0;
#X connect 38 0 33 0;
#X connect 38 0 13 0;
#X connect 39 0 40 0;
#X connect 40 0 4 0;
#X connect 41 0 144 0;
#X connect 42 0 144 1;
#X connect 43 0 144 2;
#X connect 45 0 46 0;
#X connect 46 0 50 0;
#X connect 46 0 54 0;
#X connect 46 0 60 0;
#X connect 46 0 66 0;
#X connect 46 0 72 0;
#X connect 47 0 46 1;
#X connect 48 0 46 2;
#X connect 49 0 76 0;
#X connect 50 0 44 0;
#X connect 51 0 44 1;
#X connect 53 0 77 0;
#X connect 54 0 52 0;
#X connect 55 0 51 0;
#X connect 55 0 57 0;
#X connect 56 0 52 0;
#X connect 57 0 52 1;
#X connect 59 0 78 0;
#X connect 60 0 58 0;
#X connect 61 0 63 0;
#X connect 62 0 58 0;
#X connect 63 0 58 1;
#X connect 65 0 79 0;
#X connect 66 0 64 0;
#X connect 67 0 69 0;
#X connect 68 0 64 0;
#X connect 69 0 64 1;
#X connect 71 0 80 0;
#X connect 72 0 70 0;
#X connect 73 0 75 0;
#X connect 74 0 70 0;
#X connect 75 0 70 1;
#X connect 76 0 44 0;
#X connect 77 0 56 0;
#X connect 78 0 62 0;
#X connect 79 0 68 0;
#X connect 80 0 74 0;
#X connect 84 0 14 0;
#X connect 85 0 84 0;
#X connect 86 0 85 0;
#X connect 87 0 84 0;
#X connect 89 0 88 0;
#X connect 90 0 88 0;
#X connect 91 0 92 0;
#X connect 92 0 90 0;
#X connect 92 1 89 0;
#X connect 94 0 95 0;
#X connect 95 0 112 0;
#X connect 95 1 96 0;
#X connect 96 0 97 0;
#X connect 96 0 110 0;
#X connect 97 0 98 0;
#X connect 98 0 96 1;
#X connect 99 0 106 0;
#X connect 100 0 101 0;
#X connect 101 0 108 1;
#X connect 102 0 125 0;
#X connect 103 0 108 2;
#X connect 104 0 124 0;
#X connect 105 0 103 0;
#X connect 106 0 100 0;
#X connect 106 1 105 0;
#X connect 106 2 113 0;
#X connect 107 0 93 0;
#X connect 108 0 93 0;
#X connect 109 0 94 0;
#X connect 110 0 99 0;
#X connect 110 1 111 0;
#X connect 111 0 107 0;
#X connect 112 0 121 0;
#X connect 113 0 112 1;
#X connect 114 0 115 0;
#X connect 114 1 116 0;
#X connect 115 0 117 0;
#X connect 116 0 118 0;
#X connect 119 0 93 0;
#X connect 120 0 119 0;
#X connect 121 0 108 0;
#X connect 122 0 123 0;
#X connect 123 0 93 1;
#X connect 124 0 103 1;
#X connect 125 0 101 1;
#X connect 126 0 127 0;
#X connect 128 0 145 0;
#X connect 128 1 126 1;
#X connect 128 1 20 1;
#X connect 128 1 134 0;
#X connect 128 2 126 2;
#X connect 128 2 20 2;
#X connect 128 2 137 0;
#X connect 129 0 130 0;
#X connect 130 0 140 0;
#X connect 131 0 130 1;
#X connect 132 0 20 0;
#X connect 133 0 37 0;
#X connect 134 0 12 0;
#X connect 135 0 136 0;
#X connect 136 0 134 1;
#X connect 137 0 13 0;
#X connect 138 0 139 0;
#X connect 139 0 137 1;
#X connect 140 0 141 0;
#X connect 141 0 126 0;
#X connect 142 0 143 0;
#X connect 144 0 145 1;
#X connect 145 0 146 0;
#X connect 146 0 81 0;
#X connect 146 1 82 0;
#X connect 146 2 83 0;
#X connect 147 0 145 0;
#X coords 0 -1 1 1 210 70 1 100 100;
#X restore 167 -89 pd color-position;
#N canvas 723 70 683 646 box 0;
#X obj 104 139 cnv 15 30 30 empty p0 12 5 15 0 12 -33289 -262144 0
;
#X obj 296 499 symbol;
#X obj 138 139 cnv 15 30 30 empty p1 22 5 15 0 12 -260818 -262144 0
;
#X obj 172 139 cnv 15 30 30 empty p2 32 5 15 0 12 -33289 -262144 0
;
#X obj 206 139 cnv 15 30 30 empty p3 42 5 15 0 12 -33289 -262144 0
;
#X obj 104 173 cnv 15 30 30 empty p4 52 5 15 0 12 -33289 -262144 0
;
#X obj 138 173 cnv 15 30 30 empty p5 62 5 15 0 12 -33289 -262144 0
;
#X obj 172 173 cnv 15 30 30 empty p6 72 5 15 0 12 -33289 -262144 0
;
#X obj 206 173 cnv 15 30 30 empty p7 . 5 15 0 12 -33289 -262144 0;
#X obj 104 207 cnv 15 30 30 empty p8 . 5 15 0 12 -33289 -262144 0;
#X obj 138 207 cnv 15 30 30 empty p9 . 5 15 0 12 -33289 -262144 0;
#X obj 172 207 cnv 15 30 30 empty p10 . 5 15 0 12 -33289 -262144 0
;
#X obj 206 207 cnv 15 30 30 empty p11 . 5 15 0 12 -33289 -262144 0
;
#X obj 104 241 cnv 15 30 30 empty p12 . 5 15 0 12 -33289 -262144 0
;
#X obj 138 241 cnv 15 30 30 empty p13 . 5 15 0 12 -33289 -262144 0
;
#X obj 172 241 cnv 15 30 30 empty p14 . 5 15 0 12 -33289 -262144 0
;
#X obj 206 241 cnv 15 30 30 empty p15 . 5 15 0 12 -33289 -262144 0
;
#X obj 296 477 makefilename %d;
#X obj 233 269 gemkeyboard;
#X floatatom 233 292 5 0 0 0 - - -;
#X obj 217 411 f;
#X obj 245 411 + 1;
#X obj 271 412 % 16;
#X msg 232 367 0;
#X obj 217 389 sel 1;
#N canvas 411 165 644 446 range 0;
#X obj 170 100 expr $f2-$f1;
#X obj 303 99 expr $f2-$f1;
#X obj 132 -60 inlet;
#X obj 237 76 t b f;
#X obj 73 82 inlet;
#X obj 80 166 outlet;
#X obj 81 138 expr ((($f1-$f2)/$f3)*$f4)+$f5;
#X obj 176 -25 unpack f f f f;
#X obj 170 71 f;
#X obj 302 68 f;
#X connect 0 0 6 2;
#X connect 1 0 6 3;
#X connect 2 0 7 0;
#X connect 3 0 8 0;
#X connect 3 1 0 1;
#X connect 4 0 6 0;
#X connect 6 0 5 0;
#X connect 7 0 8 0;
#X connect 7 1 3 0;
#X connect 7 2 9 0;
#X connect 7 3 1 1;
#X connect 8 0 0 0;
#X connect 8 0 6 1;
#X connect 9 0 1 0;
#X connect 9 0 6 4;
#X restore 37 421 pd range;
#X obj 90 373 loadbang;
#X obj 84 327 gemmouse 2 1;
#X floatatom 37 377 5 0 0 0 - - -;
#X obj 37 442 int;
#X floatatom 37 465 5 0 0 0 - - -;
#X obj 37 400 moses 1;
#N canvas 411 165 644 446 range 0;
#X obj 170 100 expr $f2-$f1;
#X obj 303 99 expr $f2-$f1;
#X obj 132 -60 inlet;
#X obj 237 76 t b f;
#X obj 73 82 inlet;
#X obj 80 166 outlet;
#X obj 81 138 expr ((($f1-$f2)/$f3)*$f4)+$f5;
#X obj 176 -25 unpack f f f f;
#X obj 170 71 f;
#X obj 302 68 f;
#X connect 0 0 6 2;
#X connect 1 0 6 3;
#X connect 2 0 7 0;
#X connect 3 0 8 0;
#X connect 3 1 0 1;
#X connect 4 0 6 0;
#X connect 6 0 5 0;
#X connect 7 0 8 0;
#X connect 7 1 3 0;
#X connect 7 2 9 0;
#X connect 7 3 1 1;
#X connect 8 0 0 0;
#X connect 8 0 6 1;
#X connect 9 0 1 0;
#X connect 9 0 6 4;
#X restore 101 476 pd range;
#X obj 154 428 loadbang;
#X floatatom 101 432 5 0 0 0 - - -;
#X obj 101 497 int;
#X floatatom 101 520 5 0 0 0 - - -;
#X obj 101 455 moses 1;
#X obj 37 547 expr $f2*10+$f1;
#X floatatom 37 572 5 0 0 0 - - -;
#X msg 90 396 0 1 0 10;
#X msg 154 451 0 1 0 10;
#X obj 217 448 makefilename p%d;
#X obj 217 529 pack s s;
#X msg 217 558 \; \$1 label \$2;
#X obj 233 316 sel 1 49;
#X obj 535 331 repeat 16;
#X obj 535 353 f;
#X obj 563 353 + 1;
#X obj 589 354 % 16;
#X obj 535 377 makefilename p%d;
#X msg 535 403 \; \$1 label .;
#X obj 351 143 f;
#X obj 379 143 + 1;
#X obj 405 144 % 16;
#X obj 149 105 tgl 30 0 empty empty empty 17 7 0 10 -262144 -1 -1 0
1;
#X obj 183 105 nbx 4 30 -1e+37 1e+37 0 0 empty empty empty 0 -8 0 10
-262144 -1 -1 200 256;
#X obj 351 115 metro 500;
#X obj 378 192 repeat 16;
#X obj 378 214 f;
#X obj 406 214 + 1;
#X obj 432 215 % 16;
#X obj 378 238 makefilename p%d;
#X obj 262 216 makefilename p%d;
#X msg 262 247 \; \$1 color 14;
#X msg 378 269 \; \$1 color 12;
#X obj 515 94 table melody 16;
#X obj 364 571 tabwrite melody;
#X obj 37 595 v num;
#X obj 364 536 v num;
#X obj 364 511 t b f;
#X obj 420 377 repeat 16;
#X obj 420 399 f;
#X obj 448 399 + 1;
#X obj 474 400 % 16;
#X obj 423 494 tabwrite melody;
#X obj 423 434 t b f;
#X obj 423 459 f -1;
#X obj 315 369 sel 1;
#X obj 184 53 loadbang;
#X msg 183 75 500;
#X obj 351 167 t f b f;
#X obj 496 211 tabread melody;
#X obj 496 237 s pos;
#X obj 274 58 s go;
#X obj 316 409 f;
#X obj 344 409 + 1;
#X obj 370 410 % 16;
#X floatatom 327 434 5 0 0 0 - - -;
#X obj 364 440 + 1;
#X connect 1 0 43 1;
#X connect 17 0 1 0;
#X connect 18 0 19 0;
#X connect 19 0 45 0;
#X connect 20 0 21 0;
#X connect 20 0 42 0;
#X connect 20 0 70 0;
#X connect 21 0 22 0;
#X connect 22 0 20 1;
#X connect 23 0 20 1;
#X connect 23 0 85 1;
#X connect 23 0 55 0;
#X connect 24 0 20 0;
#X connect 24 0 85 0;
#X connect 25 0 29 0;
#X connect 26 0 40 0;
#X connect 27 0 28 0;
#X connect 27 1 34 0;
#X connect 27 2 24 0;
#X connect 27 4 78 0;
#X connect 28 0 31 0;
#X connect 29 0 30 0;
#X connect 30 0 38 0;
#X connect 31 0 25 0;
#X connect 32 0 35 0;
#X connect 33 0 41 0;
#X connect 34 0 37 0;
#X connect 35 0 36 0;
#X connect 36 0 38 1;
#X connect 37 0 32 0;
#X connect 38 0 39 0;
#X connect 39 0 17 0;
#X connect 39 0 68 0;
#X connect 40 0 25 1;
#X connect 41 0 32 1;
#X connect 42 0 43 0;
#X connect 43 0 44 0;
#X connect 45 0 23 0;
#X connect 45 1 55 0;
#X connect 46 0 47 0;
#X connect 47 0 48 0;
#X connect 47 0 50 0;
#X connect 48 0 49 0;
#X connect 49 0 47 1;
#X connect 50 0 51 0;
#X connect 52 0 53 0;
#X connect 52 0 81 0;
#X connect 53 0 54 0;
#X connect 54 0 52 1;
#X connect 55 0 57 0;
#X connect 55 0 84 0;
#X connect 56 0 57 1;
#X connect 57 0 52 0;
#X connect 58 0 59 0;
#X connect 59 0 60 0;
#X connect 59 0 62 0;
#X connect 60 0 61 0;
#X connect 61 0 59 1;
#X connect 62 0 65 0;
#X connect 63 0 64 0;
#X connect 69 0 67 0;
#X connect 70 0 69 0;
#X connect 70 1 67 1;
#X connect 71 0 72 0;
#X connect 72 0 73 0;
#X connect 72 0 76 0;
#X connect 73 0 74 0;
#X connect 74 0 72 1;
#X connect 76 0 77 0;
#X connect 76 1 75 1;
#X connect 77 0 75 0;
#X connect 78 0 23 0;
#X connect 78 0 71 0;
#X connect 78 0 46 0;
#X connect 79 0 80 0;
#X connect 80 0 56 0;
#X connect 81 0 63 0;
#X connect 81 1 58 0;
#X connect 81 2 82 0;
#X connect 82 0 83 0;
#X connect 85 0 86 0;
#X connect 85 0 88 0;
#X connect 86 0 87 0;
#X connect 87 0 85 1;
#X connect 88 0 89 0;
#X connect 89 0 54 1;
#X coords 0 -1 1 1 140 175 1 100 100;
#X restore 21 -90 pd box;
#X floatatom 370 -7 5 0 0 0 - - -;
#X msg 370 72 1 \, 0 \$1;
#X obj 167 -1 * 500;
#X obj 167 55 osc~;
#X obj 167 119 *~;
#X obj 370 94 line~;
#X obj 167 150 dac~;
#X obj 268 40 osc~;
#X obj 268 -8 * 500;
#X obj 370 21 * 1000;
#X obj 167 22 + 200;
#X obj 268 16 + 200;
#X obj 370 45 + 100;
#X obj 167 89 *~ 0.4;
#X connect 0 0 4 0;
#X connect 0 1 10 0;
#X connect 0 2 2 0;
#X connect 2 0 11 0;
#X connect 3 0 7 0;
#X connect 4 0 12 0;
#X connect 5 0 15 0;
#X connect 6 0 8 0;
#X connect 6 0 8 1;
#X connect 7 0 6 1;
#X connect 9 0 15 0;
#X connect 10 0 13 0;
#X connect 11 0 14 0;
#X connect 12 0 5 0;
#X connect 13 0 9 0;
#X connect 14 0 3 0;
#X connect 15 0 6 0;
