#N canvas 892 174 258 296 10;
#X floatatom -19 90 5 0 0 0 - - -;
#X obj -104 90 * 500;
#X obj -104 113 + 100;
#X obj -63 114 + 100;
#X obj -104 146 osc~;
#X obj -104 210 *~;
#X obj -19 139 line~;
#X obj -104 241 dac~;
#X obj -63 138 osc~;
#X obj -63 90 * 500;
#X obj -104 180 *~ 0.5;
#N canvas 409 22 856 785 color_image 0;
#X obj 195 237 pix_image;
#X obj 194 269 pix_texture;
#X obj 193 344 pix_info . . . . .. .;
#X obj 192 509 rectangle 4 4;
#X obj 210 390 expr ($f1/$f2)* 4;
#X obj 210 413 t b f;
#X obj 322 568 gemwin;
#X obj 212 452 once;
#X obj 277 182 t a b b;
#X floatatom 258 458 5 0 0 0 - - -;
#X obj 212 475 f;
#X obj 71 401 pix_data;
#X obj 102 439 unpack f f f;
#X floatatom 92 468 5 0 0 0 - - -;
#X floatatom 129 469 5 0 0 0 - - -;
#X floatatom 157 506 5 0 0 0 - - -;
#X obj 12 550 translateXYZ;
#X obj 12 527 gemhead 10;
#X obj 195 199 gemhead 5;
#X obj 10 654 color 1 1 1;
#X obj 210 585 expr ($f1*$f2)-$f3;
#X obj 263 536 t f f;
#X obj 259 560 * 2;
#X obj 165 557 expr $f1*-8+4;
#X obj 11 768 text2d;
#X obj -140 402 expr int($f1*100)/100;
#X obj -126 436 expr int($f1*100)/100;
#X obj -87 469 expr int($f1*100)/100;
#X obj -129 505 pack f f f;
#X obj 114 755 loadbang;
#X msg 173 681 justify left base;
#X msg 82 759 12;
#X msg 174 658 text R:\$1 | G:\$2 | B:\$3;
#X obj 110 123 nbx 4 30 0 1 0 1 empty R: R: -12 15 0 10 -258113 -1
-1 1 10;
#X obj 179 123 nbx 4 30 0 1 0 1 empty empty G: -12 15 0 10 -4034 -1
-1 0.71 10;
#X obj 249 123 nbx 4 30 0 1 0 1 empty R: B: -12 15 0 10 -4160 -1 -1
0.71 10;
#X obj -328 660 unpack f f f;
#X obj -368 720 outlet;
#X obj -317 721 outlet;
#X obj -269 725 outlet;
#X obj 115 318 gemmouse 1 1;
#X obj 208 368 t f f;
#X obj 306 365 t f f;
#X obj 9 702 t a a;
#X obj 53 705 separator;
#X obj -164 655 t a a a a;
#X obj -161 681 separator;
#X obj -165 724 rectangle 0.1 0.01;
#X obj -164 702 translateXYZ 0.35 0 0;
#X floatatom -18 352 5 0 0 0 - - -;
#X floatatom 56 360 5 0 0 0 - - -;
#X obj 126 376 expr 1-$f1;
#X obj 192 293 t b a a a;
#X obj -57 628 separator;
#X obj 277 159 loadbang;
#X msg 277 208 open color.jpg;
#X obj 6 584 color 1 1 1;
#X obj -19 605 rectangle 0.2 0.02;
#X obj 10 677 rectangle 0.02 0.2;
#X obj 12 730 translateXYZ 0.4 -0.1 0;
#X msg 322 533 destroy \, reset \, FSAA 8 \, dimen 600 300 \, create
\, 1;
#X obj -172 583 gate 2;
#X msg -284 610 0 0 0;
#X obj -145 546 + 1;
#X obj 441 231 loadbang;
#X msg 446 256 \; pd dsp 1;
#X connect 0 0 1 0;
#X connect 1 0 52 0;
#X connect 2 0 3 0;
#X connect 2 1 41 0;
#X connect 2 2 42 0;
#X connect 4 0 5 0;
#X connect 5 0 7 0;
#X connect 5 1 10 1;
#X connect 7 0 10 0;
#X connect 8 0 55 0;
#X connect 8 1 7 1;
#X connect 8 2 60 0;
#X connect 9 0 21 0;
#X connect 10 0 3 1;
#X connect 10 0 9 0;
#X connect 11 1 12 0;
#X connect 12 0 13 0;
#X connect 12 1 14 0;
#X connect 12 2 15 0;
#X connect 13 0 25 0;
#X connect 14 0 26 0;
#X connect 15 0 27 0;
#X connect 16 0 56 0;
#X connect 17 0 16 0;
#X connect 18 0 0 0;
#X connect 19 0 58 0;
#X connect 20 0 16 1;
#X connect 21 0 22 0;
#X connect 21 1 20 2;
#X connect 22 0 20 1;
#X connect 23 0 16 2;
#X connect 25 0 28 0;
#X connect 25 0 33 0;
#X connect 26 0 28 1;
#X connect 26 0 34 0;
#X connect 27 0 28 2;
#X connect 27 0 35 0;
#X connect 28 0 32 0;
#X connect 28 0 61 1;
#X connect 29 0 31 0;
#X connect 29 0 30 0;
#X connect 30 0 24 0;
#X connect 31 0 24 1;
#X connect 32 0 24 0;
#X connect 36 0 37 0;
#X connect 36 1 38 0;
#X connect 36 2 39 0;
#X connect 40 0 11 2;
#X connect 40 0 20 0;
#X connect 40 0 49 0;
#X connect 40 1 23 0;
#X connect 40 1 50 0;
#X connect 40 1 51 0;
#X connect 40 2 63 0;
#X connect 41 1 4 0;
#X connect 42 1 4 1;
#X connect 43 1 44 0;
#X connect 44 0 59 0;
#X connect 45 0 46 0;
#X connect 46 0 48 0;
#X connect 48 0 47 0;
#X connect 51 0 11 3;
#X connect 52 0 11 0;
#X connect 52 2 11 1;
#X connect 52 3 2 0;
#X connect 53 0 19 0;
#X connect 54 0 8 0;
#X connect 55 0 0 0;
#X connect 56 0 57 0;
#X connect 57 0 53 0;
#X connect 58 0 43 0;
#X connect 59 0 24 0;
#X connect 60 0 6 0;
#X connect 61 0 62 0;
#X connect 61 1 36 0;
#X connect 62 0 36 0;
#X connect 63 0 61 0;
#X connect 64 0 65 0;
#X coords 0 -1 1 1 250 60 1 100 100;
#X restore -104 15 pd color_image;
#X msg -19 117 \$1 50;
#X connect 0 0 12 0;
#X connect 1 0 2 0;
#X connect 2 0 4 0;
#X connect 3 0 8 0;
#X connect 4 0 10 0;
#X connect 5 0 7 0;
#X connect 5 0 7 1;
#X connect 6 0 5 1;
#X connect 8 0 10 0;
#X connect 9 0 3 0;
#X connect 10 0 5 0;
#X connect 11 0 1 0;
#X connect 11 1 9 0;
#X connect 11 2 0 0;
#X connect 12 0 6 0;
