#N canvas 519 80 907 618 24;
#N canvas 137 92 1268 662 color-position 0;
#X obj -228 -85 pix_video;
#X obj -232 75 pix_texture;
#X obj -228 -30 pix_resize 10 10;
#X obj -228 -57 pix_rgba;
#X msg -304 27 quality \$1;
#X obj -115 105 pix_data;
#X floatatom -62 131 5 0 0 0 - - -;
#X obj 44 -6 unpack 0 0 0;
#X floatatom 149 17 5 0 0 0 - - -;
#X floatatom 95 17 5 0 0 0 - - -;
#X floatatom 44 17 5 0 0 0 - - -;
#X text 55 -23 color-list;
#X floatatom -80 62 5 0 0 0 - - -;
#X floatatom -62 85 5 0 0 0 - - -;
#X obj -228 50 t b a a;
#X obj -102 253 color;
#X obj -232 140 square 4;
#X obj -232 113 translateXYZ -4 0 0;
#X obj -102 281 translateXYZ 4 0 0;
#X obj -102 305 square 4;
#X obj -204 358 gemhead 5;
#X obj -204 388 translateXYZ;
#X msg -284 401 draw line;
#X obj -228 -111 gemhead 1;
#X obj -102 203 gemhead 1;
#X obj -204 429 square 0.4;
#X obj -284 372 loadbang;
#N canvas 411 165 644 446 range 0;
#X obj 170 100 expr $f2-$f1;
#X obj 303 99 expr $f2-$f1;
#X obj 132 -60 inlet;
#X obj 237 76 t b f;
#X obj 73 82 inlet;
#X obj 80 166 outlet;
#X obj 81 138 expr ((($f1-$f2)/$f3)*$f4)+$f5;
#X obj 176 -25 unpack f f f f;
#X obj 170 71 f;
#X obj 302 68 f;
#X connect 0 0 6 2;
#X connect 1 0 6 3;
#X connect 2 0 7 0;
#X connect 3 0 8 0;
#X connect 3 1 0 1;
#X connect 4 0 6 0;
#X connect 6 0 5 0;
#X connect 7 0 8 0;
#X connect 7 1 3 0;
#X connect 7 2 9 0;
#X connect 7 3 1 1;
#X connect 8 0 0 0;
#X connect 8 0 6 1;
#X connect 9 0 1 0;
#X connect 9 0 6 4;
#X restore -425 308 pd range;
#X obj -380 263 loadbang;
#X floatatom -425 334 5 0 0 0 - - -;
#X obj -386 167 gemmouse 100 100;
#X msg -380 286 0 0.9 -7.6 -0.4;
#X obj -386 231 expr (int($f1/5))/10;
#X obj -386 200 moses 50;
#N canvas 411 165 644 446 range 0;
#X obj 170 100 expr $f2-$f1;
#X obj 303 99 expr $f2-$f1;
#X obj 132 -60 inlet;
#X obj 237 76 t b f;
#X obj 73 82 inlet;
#X obj 80 166 outlet;
#X obj 81 138 expr ((($f1-$f2)/$f3)*$f4)+$f5;
#X obj 176 -25 unpack f f f f;
#X obj 170 71 f;
#X obj 302 68 f;
#X connect 0 0 6 2;
#X connect 1 0 6 3;
#X connect 2 0 7 0;
#X connect 3 0 8 0;
#X connect 3 1 0 1;
#X connect 4 0 6 0;
#X connect 6 0 5 0;
#X connect 7 0 8 0;
#X connect 7 1 3 0;
#X connect 7 2 9 0;
#X connect 7 3 1 1;
#X connect 8 0 0 0;
#X connect 8 0 6 1;
#X connect 9 0 1 0;
#X connect 9 0 6 4;
#X restore -268 315 pd range;
#X obj -224 270 loadbang;
#X floatatom -268 340 5 0 0 0 - - -;
#X msg -224 293 0 0.9 -3.6 3.6;
#X obj -234 202 expr 100-$f1;
#X obj -234 226 expr int(($f1/100)*10)/10;
#X obj -304 -20 loadbang;
#X msg -304 4 0;
#X obj 114 139 nbx 4 30 0 1 0 1 empty R: R: -12 15 0 10 -258113 -1
-1 0.152941 10;
#X obj 183 139 nbx 4 30 0 1 0 1 empty empty G: -12 15 0 10 -4034 -1
-1 0.176471 10;
#X obj 253 139 nbx 4 30 0 1 0 1 empty R: B: -12 15 0 10 -4160 -1 -1
0.176471 10;
#X obj 380 372 text2d;
#X obj 307 44 expr int($f1*100)/100;
#X obj 337 130 pack f f f;
#X obj 329 64 expr int($f1*100)/100;
#X obj 366 86 expr int($f1*100)/100;
#X obj 383 240 gemhead 10;
#X msg 404 316 text R:\$1 | G:\$2 | B:\$3;
#X msg 428 371 20;
#X obj 399 546 text2d;
#X obj 402 414 gemhead 10;
#X msg 423 490 text R:\$1 | G:\$2 | B:\$3;
#X obj 486 403 loadbang;
#X obj 400 466 color 0 0 0;
#X msg 447 545 20;
#X obj 594 551 text2d;
#X obj 597 419 gemhead 10;
#X msg 618 495 text R:\$1 | G:\$2 | B:\$3;
#X obj 681 408 loadbang;
#X obj 595 471 color 0 0 0;
#X msg 642 550 20;
#X obj 469 255 text2d;
#X obj 472 123 gemhead 10;
#X msg 493 199 text R:\$1 | G:\$2 | B:\$3;
#X obj 556 112 loadbang;
#X obj 470 175 color 0 0 0;
#X msg 517 254 20;
#X obj 664 260 text2d;
#X obj 667 128 gemhead 10;
#X msg 688 204 text R:\$1 | G:\$2 | B:\$3;
#X obj 751 117 loadbang;
#X obj 665 180 color 0 0 0;
#X msg 712 259 20;
#X obj 381 284 translateXYZ 4 0 0;
#X obj 400 439 translateXYZ 4.02 0 0;
#X obj 595 444 translateXYZ 3.98 0 0;
#X obj 470 148 translateXYZ 4 0.02 0;
#X obj 665 153 translateXYZ 4 -0.02 0;
#X obj 141 506 outlet;
#X obj 196 507 outlet;
#X obj 268 517 outlet;
#X obj -224 21 pix_flip;
#X msg -109 -7 horizontal;
#X obj -109 -39 loadbang;
#X obj -228 -7 pix_gain 1.2;
#X obj 254 105 tgl 30 0 empty empty empty 17 7 0 10 -262144 -1 -1 1
1;
#X obj 245 2 gemwin;
#X msg 242 -23 destroy \, reset \, dimen 800 400 \, create \, 1;
#X msg 222 -44 destroy;
#X obj 222 -70 sel 0 1;
#X obj 218 304 pack f f f;
#X obj 86 208 gemmouse;
#X obj 122 254 sel 1;
#X obj 140 298 list;
#X obj 180 343 unpack f f f;
#X obj -4 364 loadbang;
#X msg -4 402 \; pd dsp 1;
#X connect 0 0 3 0;
#X connect 1 0 17 0;
#X connect 2 0 88 0;
#X connect 3 0 2 0;
#X connect 4 0 1 0;
#X connect 5 1 7 0;
#X connect 5 1 15 1;
#X connect 5 2 6 0;
#X connect 7 0 10 0;
#X connect 7 1 9 0;
#X connect 7 2 8 0;
#X connect 8 0 44 0;
#X connect 8 0 49 0;
#X connect 9 0 43 0;
#X connect 9 0 48 0;
#X connect 10 0 42 0;
#X connect 10 0 46 0;
#X connect 12 0 5 2;
#X connect 13 0 5 3;
#X connect 14 0 5 0;
#X connect 14 1 1 0;
#X connect 14 2 5 1;
#X connect 15 0 18 0;
#X connect 17 0 16 0;
#X connect 18 0 19 0;
#X connect 20 0 21 0;
#X connect 21 0 25 0;
#X connect 22 0 25 0;
#X connect 23 0 0 0;
#X connect 24 0 15 0;
#X connect 26 0 22 0;
#X connect 27 0 29 0;
#X connect 28 0 31 0;
#X connect 29 0 21 1;
#X connect 30 0 33 0;
#X connect 30 1 38 0;
#X connect 31 0 27 1;
#X connect 32 0 27 0;
#X connect 32 0 12 0;
#X connect 33 0 32 0;
#X connect 34 0 36 0;
#X connect 35 0 37 0;
#X connect 36 0 21 2;
#X connect 37 0 34 1;
#X connect 38 0 39 0;
#X connect 39 0 34 0;
#X connect 39 0 13 0;
#X connect 40 0 41 0;
#X connect 41 0 4 0;
#X connect 42 0 94 0;
#X connect 43 0 94 1;
#X connect 44 0 94 2;
#X connect 46 0 47 0;
#X connect 47 0 51 0;
#X connect 47 0 55 0;
#X connect 47 0 61 0;
#X connect 47 0 67 0;
#X connect 47 0 73 0;
#X connect 48 0 47 1;
#X connect 49 0 47 2;
#X connect 50 0 77 0;
#X connect 51 0 45 0;
#X connect 52 0 45 1;
#X connect 54 0 78 0;
#X connect 55 0 53 0;
#X connect 56 0 52 0;
#X connect 56 0 58 0;
#X connect 57 0 53 0;
#X connect 58 0 53 1;
#X connect 60 0 79 0;
#X connect 61 0 59 0;
#X connect 62 0 64 0;
#X connect 63 0 59 0;
#X connect 64 0 59 1;
#X connect 66 0 80 0;
#X connect 67 0 65 0;
#X connect 68 0 70 0;
#X connect 69 0 65 0;
#X connect 70 0 65 1;
#X connect 72 0 81 0;
#X connect 73 0 71 0;
#X connect 74 0 76 0;
#X connect 75 0 71 0;
#X connect 76 0 71 1;
#X connect 77 0 45 0;
#X connect 78 0 57 0;
#X connect 79 0 63 0;
#X connect 80 0 69 0;
#X connect 81 0 75 0;
#X connect 85 0 14 0;
#X connect 86 0 85 0;
#X connect 87 0 86 0;
#X connect 88 0 85 0;
#X connect 89 0 93 0;
#X connect 91 0 90 0;
#X connect 92 0 90 0;
#X connect 93 0 92 0;
#X connect 93 1 91 0;
#X connect 94 0 97 1;
#X connect 95 2 96 0;
#X connect 96 0 97 0;
#X connect 97 0 98 0;
#X connect 98 0 82 0;
#X connect 98 1 83 0;
#X connect 98 2 84 0;
#X connect 99 0 100 0;
#X coords 0 -1 1 1 210 75 1 100 100;
#X restore -64 6 pd color-position;
#X floatatom -64 95 5 0 0 0 - - -;
#X floatatom 37 91 5 0 0 0 - - -;
#X floatatom 138 90 5 0 0 0 - - -;
#X floatatom -64 172 5 0 0 0 - - -;
#X floatatom 36 164 5 0 0 0 - - -;
#X floatatom 134 171 5 0 0 0 - - -;
#X obj -212 255 sel 1;
#X obj -323 249 noise~;
#X obj -212 329 line;
#X obj -253 440 *~ 0;
#X obj -253 480 dac~;
#X obj -212 370 moses 1;
#X obj 71 263 sel 1;
#X obj 71 337 line;
#X obj -63 435 *~ 0;
#X obj -63 475 dac~;
#X obj 71 378 moses 1;
#X obj 191 312 osc~ 10;
#X obj 191 388 osc~;
#X obj 277 236 sel 1;
#X obj 277 310 line;
#X obj 191 426 *~ 0;
#X obj 191 466 dac~;
#X obj 277 350 moses 1;
#X obj -323 344 *~;
#X obj -293 295 osc~ 5;
#X obj 191 349 *~ 850;
#X msg 277 274 1 \, 0 500;
#X msg -212 293 1 \, 0 400;
#X msg 71 301 1 \, 0 300;
#X obj -121 262 phasor~ 440;
#X obj -121 306 *~;
#X obj -62 306 square~ 500;
#X obj -64 136 > 0.7;
#X obj 36 128 > 0.7;
#X obj 134 135 > 0.7;
#X connect 0 0 1 0;
#X connect 0 1 2 0;
#X connect 0 2 3 0;
#X connect 1 0 34 0;
#X connect 2 0 35 0;
#X connect 3 0 36 0;
#X connect 4 0 7 0;
#X connect 5 0 13 0;
#X connect 6 0 20 0;
#X connect 7 0 29 0;
#X connect 8 0 25 0;
#X connect 9 0 12 0;
#X connect 10 0 11 0;
#X connect 10 0 11 1;
#X connect 12 0 10 1;
#X connect 13 0 30 0;
#X connect 14 0 17 0;
#X connect 15 0 16 0;
#X connect 15 0 16 1;
#X connect 17 0 15 1;
#X connect 18 0 27 0;
#X connect 19 0 22 0;
#X connect 20 0 28 0;
#X connect 21 0 24 0;
#X connect 22 0 23 0;
#X connect 22 0 23 1;
#X connect 24 0 22 1;
#X connect 25 0 10 0;
#X connect 26 0 25 1;
#X connect 27 0 19 0;
#X connect 28 0 21 0;
#X connect 29 0 9 0;
#X connect 30 0 14 0;
#X connect 31 0 32 0;
#X connect 32 0 15 0;
#X connect 33 0 32 1;
#X connect 34 0 4 0;
#X connect 35 0 5 0;
#X connect 36 0 6 0;
